<svg xmlns="http://www.w3.org/2000/svg" viewBox="0 0 423.9 100" width="424" height="100" role="img" aria-label="Arne">
<g transform="translate(-74.667,-35.200) scale(0.2667)"><path d="M460.98,143.57 Q443.00,147.52 430.20,151.43 Q421.07,154.22 408.19,160.22 L406.70,160.56 L406.77,160.57 L406.83,160.57 L406.90,160.57 L406.97,160.57 L407.03,160.58 L407.09,160.58 L407.16,160.58 L407.22,160.59 L407.28,160.59 L407.34,160.59 L407.40,160.60 L407.45,160.60 L407.51,160.61 L407.56,160.61 L407.62,160.62 L407.67,160.62 L407.72,160.62 L407.77,160.63 L407.82,160.63 L407.87,160.64 L407.91,160.64 L407.95,160.65 Q405.45,161.11 401.76,163.02 Q378.72,174.99 360.57,190.30 Q349.20,199.89 333.69,217.11 C329.33,221.95 325.76,227.48 320.82,234.32 Q320.58,234.65 320.57,235.17 L320.57,235.20 L320.58,235.23 L320.58,235.27 L320.59,235.30 L320.60,235.33 L320.62,235.36 L320.64,235.38 L320.66,235.41 L320.68,235.43 L320.70,235.46 L320.73,235.48 L320.75,235.49 L320.78,235.51 L320.81,235.52 L320.84,235.53 L320.88,235.54 L320.91,235.55 L320.94,235.55 L320.97,235.55 L321.01,235.55 L321.04,235.54 L321.07,235.53 L321.10,235.52 Q329.87,231.93 339.75,230.06 Q340.65,229.90 341.39,230.01 L341.46,230.03 L341.53,230.05 L341.60,230.07 L341.66,230.11 L341.73,230.15 L341.78,230.19 L341.84,230.24 L341.89,230.30 L341.93,230.36 L341.97,230.42 L342.00,230.49 L342.02,230.56 L342.04,230.63 L342.05,230.70 L342.06,230.77 L342.06,230.85 L342.05,230.92 L342.03,230.99 L342.01,231.06 L341.98,231.13 L341.95,231.19 L341.91,231.25 L341.86,231.31 Q325.11,250.49 313.85,274.67 C309.37,284.27 305.81,292.76 303.06,301.79 C301.58,306.64 298.49,316.47 297.02,323.78 Q292.54,346.03 290.05,372.26 Q289.63,376.68 290.14,380.33 Q288.24,384.35 289.58,386.88 Q322.56,419.05 361.71,442.41 Q404.78,468.11 454.76,482.24 Q515.26,499.34 576.81,497.40 C584.36,497.17 591.78,497.18 599.43,496.49 Q604.85,495.99 610.28,495.63 Q622.28,494.54 634.12,492.45 Q635.77,492.16 637.13,491.80 L637.19,491.78 L637.26,491.76 L637.32,491.73 L637.38,491.70 L637.43,491.66 L637.49,491.62 L637.54,491.58 L637.58,491.53 L637.63,491.48 L637.67,491.43 L637.71,491.38 L637.74,491.32 L637.77,491.26 L637.80,491.20 L637.82,491.14 L637.84,491.07 L637.86,491.01 L637.87,490.94 L637.87,490.87 L637.87,490.81 L637.87,490.74 L637.86,490.68 L637.85,490.61 L637.19,487.60 Q632.19,465.78 622.35,445.38 C612.95,425.91 604.73,410.08 603.35,389.97 Q602.65,379.77 605.27,368.11 C612.60,335.44 633.81,311.78 664.35,297.78 C668.88,295.70 674.62,296.26 679.46,295.65 Q686.73,295.12 694.03,294.98 C697.40,294.92 700.32,294.21 703.63,294.15 Q705.98,294.10 710.83,293.49 Q716.26,292.82 722.49,291.99 Q733.61,290.52 744.44,288.06 Q745.99,288.02 747.31,287.30 Q748.24,287.25 748.44,287.00 L754.45,285.63 L766.48,282.03 Q767.60,282.00 768.56,281.38 L769.31,281.05 Q771.32,280.85 772.28,281.21 Q778.12,283.39 784.04,285.34 Q785.26,286.14 786.38,286.01 L786.41,286.00 L786.45,286.00 L786.48,285.99 L786.51,285.97 L786.54,285.96 L786.57,285.94 L786.60,285.92 L786.63,285.90 L786.65,285.88 L786.68,285.85 L786.70,285.82 L786.72,285.79 L786.73,285.76 L786.75,285.73 L786.76,285.70 L786.77,285.67 L786.77,285.63 L786.78,285.60 L786.78,285.57 L786.78,285.53 L786.78,285.50 L786.77,285.46 L786.76,285.43 Q786.20,283.65 785.61,282.69 C775.80,266.64 759.95,252.99 743.79,243.23 C727.21,233.22 707.73,225.18 688.83,218.36 Q665.58,210.03 641.54,203.09 L630.54,199.94 L629.55,199.57 L627.59,198.82 L627.55,198.80 L627.51,198.78 L627.47,198.76 L627.43,198.75 L627.39,198.73 L627.35,198.70 L627.32,198.68 L627.28,198.66 L627.24,198.64 L627.21,198.61 L627.17,198.59 L627.14,198.56 L627.11,198.53 L627.07,198.50 L627.04,198.48 L627.01,198.45 L626.98,198.42 L626.95,198.38 L626.92,198.35 L626.89,198.32 L626.87,198.29 L626.84,198.25 L626.82,198.22 C604.70,166.47 569.12,149.53 531.80,142.82 Q519.97,140.70 504.08,140.46 Q488.20,140.23 476.25,141.00 Q469.43,141.45 460.98,143.57 Z" fill="#303840"/><path d="M539.77,276.43 L540.65,276.53 L540.69,276.54 L540.73,276.55 L540.77,276.56 L540.80,276.58 L540.84,276.61 L540.87,276.63 L540.89,276.66 L540.92,276.70 L540.94,276.73 L540.95,276.77 L540.96,276.81 L540.97,276.85 L540.97,276.89 L540.96,276.93 L540.95,276.97 L540.94,277.01 L540.92,277.04 L540.90,277.08 L540.87,277.11 L540.84,277.14 L540.81,277.16 L540.78,277.18 L540.74,277.20 Q530.06,281.14 520.87,287.54 C514.76,289.18 510.77,292.12 505.78,295.75 C502.96,297.81 501.24,299.72 498.06,301.56 Q497.19,302.07 487.17,309.14 Q474.76,317.89 456.15,324.38 C445.37,328.14 434.58,327.89 423.51,325.76 C407.66,322.71 392.43,309.71 387.42,294.62 Q385.85,289.89 385.91,288.00 Q385.97,286.33 385.48,285.03 L385.47,285.01 L385.46,285.00 L385.45,284.98 L385.44,284.97 L385.43,284.96 L385.41,284.95 L385.39,284.94 L385.38,284.94 L385.36,284.93 L385.34,284.93 L385.32,284.93 L385.30,284.93 L385.29,284.94 L385.27,284.94 L385.25,284.95 L385.24,284.96 L385.23,284.97 L385.21,284.99 L385.20,285.00 L385.19,285.02 L385.19,285.03 L385.18,285.05 L385.18,285.07 Q383.54,300.24 389.50,314.22 Q393.89,324.49 404.16,330.56 Q421.78,340.97 441.79,337.15 L441.83,337.15 L441.87,337.14 L441.91,337.15 L441.95,337.15 L441.99,337.16 L442.03,337.18 L442.07,337.19 L442.11,337.21 L442.14,337.24 L442.17,337.26 L442.20,337.29 L442.22,337.32 L442.25,337.36 L442.27,337.39 L442.28,337.43 L442.30,337.47 L442.31,337.51 L442.31,337.55 L442.31,337.59 L442.31,337.63 L442.30,337.67 L442.29,337.71 L442.28,337.75 Q441.80,339.01 440.78,340.28 Q429.29,354.54 415.45,364.21 Q391.94,380.65 369.17,386.87 Q348.98,392.39 330.51,391.91 Q314.43,391.49 296.61,388.10 L296.60,387.81 L296.57,387.81 L296.54,387.80 L296.51,387.80 L296.48,387.80 L296.45,387.80 L296.42,387.79 L296.39,387.79 L296.36,387.79 L296.33,387.78 L296.30,387.78 L296.27,387.77 L296.24,387.77 L296.21,387.77 L296.18,387.76 L296.15,387.76 L296.12,387.75 L296.09,387.75 L296.06,387.74 L296.03,387.74 L296.00,387.73 L295.98,387.73 L295.95,387.72 Q292.46,386.53 289.58,386.88 Q288.24,384.35 290.14,380.33 Q296.24,351.64 308.37,328.37 Q312.49,320.45 321.82,306.82 Q335.44,286.93 356.68,269.94 C381.99,249.70 411.78,235.04 443.78,228.39 C447.31,227.66 451.62,227.50 455.52,226.99 Q461.41,226.89 463.57,227.39 C475.38,230.12 489.60,236.49 496.06,247.29 C499.43,252.92 501.37,256.70 504.39,260.27 Q512.69,270.10 525.23,274.29 Q529.55,275.73 539.77,276.43 Z" fill="#9e9ab0"/><path d="M688.83,218.36 C707.73,225.18 727.21,233.22 743.79,243.23 C759.95,252.99 775.80,266.64 785.61,282.69 Q786.20,283.65 786.76,285.43 L786.77,285.46 L786.78,285.50 L786.78,285.53 L786.78,285.57 L786.78,285.60 L786.77,285.63 L786.77,285.67 L786.76,285.70 L786.75,285.73 L786.73,285.76 L786.72,285.79 L786.70,285.82 L786.68,285.85 L786.65,285.88 L786.63,285.90 L786.60,285.92 L786.57,285.94 L786.54,285.96 L786.51,285.97 L786.48,285.99 L786.45,286.00 L786.41,286.00 L786.38,286.01 Q785.26,286.14 784.04,285.34 Q784.45,285.23 784.35,284.71 L784.35,284.70 L784.35,284.69 L784.34,284.68 L784.34,284.67 L784.34,284.66 L784.33,284.65 L784.33,284.65 L784.33,284.64 L784.32,284.63 L784.32,284.62 L784.31,284.61 L784.30,284.61 L784.30,284.60 L784.29,284.59 L784.28,284.58 L784.28,284.58 L784.27,284.57 L784.26,284.57 L784.25,284.56 L784.25,284.55 L784.24,284.55 L784.23,284.55 L784.22,284.54 L772.47,279.13 L772.44,279.16 L772.43,279.15 L772.41,279.15 L772.39,279.14 L772.38,279.14 L772.36,279.13 L772.34,279.13 L772.33,279.12 L772.31,279.12 L772.29,279.11 L772.28,279.11 L772.26,279.11 L772.24,279.10 L772.22,279.10 L772.21,279.10 L772.19,279.09 L772.17,279.09 L772.16,279.09 L772.14,279.08 L772.12,279.08 L772.11,279.08 L772.09,279.08 L772.07,279.07 C770.25,278.68 767.87,278.02 765.77,277.19 Q749.04,270.63 734.09,267.97 Q722.99,265.99 716.43,264.67 C698.19,261.00 679.81,261.10 654.66,261.08 C646.68,261.07 636.78,261.81 631.19,262.38 Q616.52,263.88 598.01,265.48 C594.24,265.81 588.97,267.36 584.42,268.09 C580.76,268.69 578.06,269.51 575.08,268.60 Q585.51,261.52 597.11,256.72 Q602.37,254.55 610.09,252.38 Q620.18,249.55 623.38,249.12 Q636.20,247.38 639.29,246.79 Q668.73,241.23 688.83,218.36 Z" fill="#303840"/><path d="M784.04,285.34 Q778.12,283.39 772.28,281.21 Q771.32,280.85 769.31,281.05 Q768.76,279.96 767.41,279.54 C752.10,274.84 736.92,272.24 722.87,269.92 Q710.96,267.97 695.52,267.15 Q661.34,265.35 626.39,268.12 Q616.39,268.91 603.13,270.82 Q592.65,272.32 579.93,273.91 Q575.36,274.47 570.02,275.70 L570.01,275.70 L569.99,275.71 L569.98,275.72 L569.97,275.72 L569.96,275.73 L569.95,275.75 L569.94,275.76 L569.93,275.77 L569.93,275.78 L569.92,275.80 L569.92,275.81 L569.92,275.83 L569.92,275.84 L569.93,275.86 L569.93,275.87 L569.94,275.88 L569.95,275.89 L569.96,275.90 L569.97,275.91 L569.98,275.92 L569.99,275.93 L570.01,275.93 L570.02,275.94 C572.22,276.36 574.49,276.17 576.65,276.71 Q585.09,278.82 588.57,280.44 C599.15,285.37 609.14,292.33 616.22,302.03 Q616.22,302.13 616.13,302.30 L616.13,302.30 L616.12,302.31 L616.12,302.31 L616.11,302.32 L616.11,302.32 L616.11,302.33 L616.10,302.33 L616.10,302.34 L616.09,302.34 L616.09,302.35 L616.08,302.35 L616.08,302.35 L616.07,302.36 L616.07,302.36 L616.06,302.36 L616.06,302.37 L616.05,302.37 L616.05,302.37 L616.04,302.38 L616.04,302.38 L616.03,302.38 L616.03,302.39 L616.02,302.39 Q605.87,306.41 603.07,307.81 Q587.78,315.45 573.81,327.23 Q560.93,338.09 550.26,353.19 Q531.53,379.71 525.13,411.66 L525.12,411.70 L525.12,411.75 L525.13,411.79 L525.14,411.84 L525.15,411.88 L525.17,411.92 L525.20,411.96 L525.23,411.99 L525.26,412.03 L525.30,412.05 L525.34,412.08 L525.38,412.09 L525.42,412.11 L525.47,412.11 L525.51,412.11 L525.56,412.11 L525.60,412.10 L525.64,412.09 L525.69,412.07 L525.72,412.05 L525.76,412.02 L525.79,411.99 L525.82,411.95 Q531.74,403.43 541.61,397.94 L541.68,397.91 L541.76,397.88 L541.83,397.86 L541.91,397.84 L541.99,397.84 L542.07,397.84 L542.15,397.84 L542.23,397.86 L542.30,397.88 L542.38,397.91 L542.45,397.94 L542.52,397.98 L542.58,398.03 L542.64,398.08 L542.70,398.14 L542.74,398.20 L542.79,398.27 L542.82,398.34 L542.85,398.41 L542.88,398.49 L542.89,398.56 L542.90,398.64 L542.90,398.72 Q542.34,425.63 551.26,450.49 Q554.26,458.87 563.02,475.57 C565.53,480.37 569.10,484.37 572.06,489.39 L571.99,489.50 L572.02,489.54 L572.05,489.57 L572.09,489.61 L572.12,489.64 L572.15,489.67 L572.19,489.71 L572.22,489.74 L572.26,489.78 L572.29,489.81 L572.33,489.84 L572.36,489.88 L572.40,489.91 L572.44,489.94 L572.47,489.97 L572.51,490.01 L572.55,490.04 L572.58,490.07 L572.62,490.10 L572.66,490.13 L572.70,490.16 L572.74,490.19 L572.77,490.22 C574.48,492.36 576.82,494.84 576.81,497.40 Q515.26,499.34 454.76,482.24 Q404.78,468.11 361.71,442.41 Q380.01,437.87 393.33,431.83 Q435.77,412.60 460.12,370.63 Q466.33,359.92 475.78,341.46 C483.67,326.02 494.64,311.99 506.71,299.54 C510.84,295.28 516.02,291.47 520.87,287.54 Q530.06,281.14 540.74,277.20 L540.78,277.18 L540.81,277.16 L540.84,277.14 L540.87,277.11 L540.90,277.08 L540.92,277.04 L540.94,277.01 L540.95,276.97 L540.96,276.93 L540.97,276.89 L540.97,276.85 L540.96,276.81 L540.95,276.77 L540.94,276.73 L540.92,276.70 L540.89,276.66 L540.87,276.63 L540.84,276.61 L540.80,276.58 L540.77,276.56 L540.73,276.55 L540.69,276.54 L540.65,276.53 L539.77,276.43 Q541.76,276.08 543.76,276.09 C549.73,276.12 555.81,275.06 561.74,274.28 L561.84,274.25 L561.94,274.24 L562.04,274.22 L562.15,274.20 L562.25,274.18 L562.35,274.16 L562.45,274.14 L562.55,274.11 L562.65,274.09 L562.75,274.06 L562.85,274.04 L562.95,274.01 L563.05,273.98 L563.15,273.94 L563.25,273.91 L563.34,273.88 L563.44,273.84 L563.54,273.81 L563.63,273.77 L563.73,273.73 L563.82,273.69 L563.92,273.65 L564.01,273.61 L575.08,268.60 C578.06,269.51 580.76,268.69 584.42,268.09 C588.97,267.36 594.24,265.81 598.01,265.48 Q616.52,263.88 631.19,262.38 C636.78,261.81 646.68,261.07 654.66,261.08 C679.81,261.10 698.19,261.00 716.43,264.67 Q722.99,265.99 734.09,267.97 Q749.04,270.63 765.77,277.19 C767.87,278.02 770.25,278.68 772.08,279.01 L772.09,279.08 L772.11,279.08 L772.12,279.08 L772.14,279.08 L772.16,279.09 L772.17,279.09 L772.19,279.09 L772.21,279.10 L772.22,279.10 L772.24,279.10 L772.26,279.11 L772.28,279.11 L772.29,279.11 L772.31,279.12 L772.33,279.12 L772.34,279.13 L772.36,279.13 L772.38,279.14 L772.39,279.14 L772.41,279.15 L772.43,279.15 L772.44,279.16 L772.46,279.16 L784.22,284.54 L784.23,284.55 L784.24,284.55 L784.25,284.55 L784.25,284.56 L784.26,284.57 L784.27,284.57 L784.28,284.58 L784.28,284.58 L784.29,284.59 L784.30,284.60 L784.30,284.61 L784.31,284.61 L784.32,284.62 L784.32,284.63 L784.33,284.64 L784.33,284.65 L784.33,284.65 L784.34,284.66 L784.34,284.67 L784.34,284.68 L784.35,284.69 L784.35,284.70 L784.35,284.71 Q784.45,285.23 784.04,285.34 Z" fill="#484f5b"/><path d="M460.98,143.57 Q463.24,147.87 465.43,152.05 Q467.31,155.64 474.24,162.52 Q491.26,179.43 515.58,189.63 Q527.91,194.80 534.06,196.56 Q531.97,197.09 527.49,197.72 Q519.65,198.84 510.91,205.18 Q508.61,206.85 502.37,212.36 L502.29,212.43 L502.20,212.50 L502.12,212.57 L502.03,212.63 L501.94,212.70 L501.86,212.77 L501.77,212.83 L501.68,212.90 L501.59,212.96 L501.50,213.02 L501.41,213.08 L501.32,213.15 L501.23,213.21 L501.14,213.27 L501.05,213.33 L500.95,213.38 L500.86,213.44 L500.77,213.50 L500.67,213.55 L500.58,213.61 L500.48,213.66 L500.39,213.72 L500.29,213.77 C496.74,215.96 494.07,217.93 490.83,219.06 Q485.06,221.09 479.28,222.81 Q476.30,223.69 467.42,224.96 Q461.44,225.82 455.52,226.99 C451.62,227.50 447.31,227.66 443.78,228.39 C411.78,235.04 381.99,249.70 356.68,269.94 Q335.44,286.93 321.82,306.82 Q312.49,320.45 308.37,328.37 Q296.24,351.64 290.14,380.33 Q289.63,376.68 290.05,372.26 Q292.54,346.03 297.02,323.78 C298.49,316.47 301.58,306.64 303.06,301.79 C305.81,292.76 309.37,284.27 313.85,274.67 Q325.11,250.49 341.86,231.31 L341.91,231.25 L341.95,231.19 L341.98,231.13 L342.01,231.06 L342.03,230.99 L342.05,230.92 L342.06,230.85 L342.06,230.77 L342.05,230.70 L342.04,230.63 L342.02,230.56 L342.00,230.49 L341.97,230.42 L341.93,230.36 L341.89,230.30 L341.84,230.24 L341.78,230.19 L341.73,230.15 L341.66,230.11 L341.60,230.07 L341.53,230.05 L341.46,230.03 L341.39,230.01 Q340.65,229.90 339.75,230.06 Q329.87,231.93 321.10,235.52 L321.07,235.53 L321.04,235.54 L321.01,235.55 L320.97,235.55 L320.94,235.55 L320.91,235.55 L320.88,235.54 L320.84,235.53 L320.81,235.52 L320.78,235.51 L320.75,235.49 L320.73,235.48 L320.70,235.46 L320.68,235.43 L320.66,235.41 L320.64,235.38 L320.62,235.36 L320.60,235.33 L320.59,235.30 L320.58,235.27 L320.58,235.23 L320.57,235.20 L320.57,235.17 Q320.58,234.65 320.82,234.32 C325.76,227.48 329.33,221.95 333.69,217.11 Q349.20,199.89 360.57,190.30 Q378.72,174.99 401.76,163.02 Q405.45,161.11 406.76,160.72 L407.91,160.64 L407.87,160.64 L407.82,160.63 L407.77,160.63 L407.72,160.62 L407.67,160.62 L407.62,160.62 L407.56,160.61 L407.51,160.61 L407.45,160.60 L407.40,160.60 L407.34,160.59 L407.28,160.59 L407.22,160.59 L407.16,160.58 L407.09,160.58 L407.03,160.58 L406.97,160.57 L406.90,160.57 L406.83,160.57 L406.77,160.57 L406.70,160.56 L406.63,160.56 Q421.07,154.22 430.20,151.43 Q443.00,147.52 460.98,143.57 Z" fill="#b8b4cb"/><path d="M629.55,199.57 Q629.42,199.84 629.13,199.83 C621.24,199.56 616.47,201.04 607.99,205.27 Q599.50,209.52 599.33,209.59 C592.29,212.46 585.50,213.11 577.82,211.05 Q571.64,209.39 569.13,208.11 Q558.04,202.46 553.37,200.40 Q544.25,196.39 534.06,196.56 Q527.91,194.80 515.58,189.63 Q491.26,179.43 474.24,162.52 Q467.31,155.64 465.43,152.05 Q463.24,147.87 460.98,143.57 Q469.43,141.45 476.25,141.00 Q488.20,140.23 504.08,140.46 Q519.97,140.70 531.80,142.82 C569.12,149.53 604.70,166.47 626.81,198.22 L626.84,198.25 L626.87,198.29 L626.89,198.32 L626.92,198.35 L626.95,198.38 L626.98,198.42 L627.01,198.45 L627.04,198.48 L627.07,198.50 L627.11,198.53 L627.14,198.56 L627.17,198.59 L627.21,198.61 L627.24,198.64 L627.28,198.66 L627.32,198.68 L627.35,198.70 L627.39,198.73 L627.43,198.75 L627.47,198.76 L627.51,198.78 L627.55,198.80 L627.59,198.82 L629.55,199.57 Z" fill="#484f5b"/><path d="M629.55,199.57 L630.54,199.94 Q632.91,201.21 635.65,201.68 L635.68,201.75 L635.72,201.76 L635.77,201.77 L635.81,201.78 L635.85,201.79 L635.90,201.81 L635.94,201.82 L635.98,201.83 L636.03,201.85 L636.07,201.86 L636.11,201.88 L636.15,201.90 L636.19,201.91 L636.24,201.93 L636.28,201.95 L636.32,201.97 L636.36,201.98 L636.40,202.00 L636.44,202.02 L636.48,202.04 L636.52,202.06 L636.56,202.09 L636.60,202.11 Q638.89,203.35 641.54,203.09 Q665.58,210.03 688.83,218.36 Q668.73,241.23 639.29,246.79 Q636.20,247.38 623.38,249.12 Q620.18,249.55 610.09,252.38 Q602.37,254.55 597.11,256.72 Q585.51,261.52 575.08,268.60 L564.02,273.62 L563.92,273.65 L563.82,273.69 L563.73,273.73 L563.63,273.77 L563.54,273.81 L563.44,273.84 L563.34,273.88 L563.25,273.91 L563.15,273.94 L563.05,273.98 L562.95,274.01 L562.85,274.04 L562.75,274.06 L562.65,274.09 L562.55,274.11 L562.45,274.14 L562.35,274.16 L562.25,274.18 L562.15,274.20 L562.04,274.22 L561.94,274.24 L561.84,274.25 L561.74,274.27 C555.81,275.06 549.73,276.12 543.76,276.09 Q541.76,276.08 539.77,276.43 Q529.55,275.73 525.23,274.29 Q512.69,270.10 504.39,260.27 C501.37,256.70 499.43,252.92 496.06,247.29 C489.60,236.49 475.38,230.12 463.57,227.39 Q461.41,226.89 455.52,226.99 Q461.44,225.82 467.42,224.96 Q476.30,223.69 479.28,222.81 Q485.06,221.09 490.83,219.06 C494.07,217.93 496.74,215.96 500.33,213.84 L500.39,213.72 L500.48,213.66 L500.58,213.61 L500.67,213.55 L500.77,213.50 L500.86,213.44 L500.95,213.38 L501.05,213.33 L501.14,213.27 L501.23,213.21 L501.32,213.15 L501.41,213.08 L501.50,213.02 L501.59,212.96 L501.68,212.90 L501.77,212.83 L501.86,212.77 L501.94,212.70 L502.03,212.63 L502.12,212.57 L502.20,212.50 L502.29,212.43 L502.37,212.36 Q508.61,206.85 510.91,205.18 Q519.65,198.84 527.49,197.72 Q531.97,197.09 534.06,196.56 Q544.25,196.39 553.37,200.40 Q558.04,202.46 569.13,208.11 Q571.64,209.39 577.82,211.05 C585.50,213.11 592.29,212.46 599.33,209.59 Q599.50,209.52 607.99,205.27 C616.47,201.04 621.24,199.56 629.13,199.83 Q629.42,199.84 629.55,199.57 Z" fill="#040605"/><path d="M769.31,281.05 L768.56,281.38 Q767.45,280.92 766.48,282.03 L754.45,285.63 L748.44,287.00 Q747.80,286.92 747.31,287.30 Q745.07,287.13 744.44,288.06 Q733.61,290.52 722.49,291.99 Q716.26,292.82 710.83,293.49 Q705.98,294.10 703.63,294.15 C700.32,294.21 697.40,294.92 694.03,294.98 Q686.73,295.12 679.46,295.65 Q671.64,295.06 664.00,296.88 L663.95,296.85 L663.91,296.86 L663.87,296.87 L663.82,296.88 L663.78,296.89 L663.74,296.89 L663.70,296.90 L663.65,296.90 L663.61,296.91 L663.57,296.91 L663.53,296.91 L663.48,296.92 L663.44,296.92 L663.40,296.92 L663.35,296.92 L663.31,296.92 L663.27,296.91 L663.23,296.91 L663.18,296.91 L663.14,296.90 L663.10,296.90 L663.05,296.89 L663.01,296.89 Q660.03,296.31 656.75,296.57 Q643.43,297.63 630.54,299.37 Q624.82,300.15 617.96,301.87 Q617.16,302.07 616.22,302.03 C609.14,292.33 599.15,285.37 588.57,280.44 Q585.09,278.82 576.65,276.71 C574.49,276.17 572.22,276.36 570.02,275.94 L570.01,275.93 L569.99,275.93 L569.98,275.92 L569.97,275.91 L569.96,275.90 L569.95,275.89 L569.94,275.88 L569.93,275.87 L569.93,275.86 L569.92,275.84 L569.92,275.83 L569.92,275.81 L569.92,275.80 L569.93,275.78 L569.93,275.77 L569.94,275.76 L569.95,275.75 L569.96,275.73 L569.97,275.72 L569.98,275.72 L569.99,275.71 L570.01,275.70 L570.02,275.70 Q575.36,274.47 579.93,273.91 Q592.65,272.32 603.13,270.82 Q616.39,268.91 626.39,268.12 Q661.34,265.35 695.52,267.15 Q710.96,267.97 722.87,269.92 C736.92,272.24 752.10,274.84 767.41,279.54 Q768.76,279.96 769.31,281.05 Z" fill="#040605"/><path d="M520.87,287.54 C516.02,291.47 510.84,295.28 506.71,299.54 C494.64,311.99 483.67,326.02 475.78,341.46 Q466.33,359.92 460.12,370.63 Q435.77,412.60 393.33,431.83 Q380.01,437.87 361.71,442.41 Q322.56,419.05 289.58,386.88 Q292.46,386.53 295.90,387.90 L295.98,387.73 L296.00,387.73 L296.03,387.74 L296.06,387.74 L296.09,387.75 L296.12,387.75 L296.15,387.76 L296.18,387.76 L296.21,387.77 L296.24,387.77 L296.27,387.77 L296.30,387.78 L296.33,387.78 L296.36,387.79 L296.39,387.79 L296.42,387.79 L296.45,387.80 L296.48,387.80 L296.51,387.80 L296.54,387.80 L296.57,387.81 L296.60,387.81 L296.63,387.81 Q314.43,391.49 330.51,391.91 Q348.98,392.39 369.17,386.87 Q391.94,380.65 415.45,364.21 Q429.29,354.54 440.78,340.28 Q441.80,339.01 442.28,337.75 L442.29,337.71 L442.30,337.67 L442.31,337.63 L442.31,337.59 L442.31,337.55 L442.31,337.51 L442.30,337.47 L442.28,337.43 L442.27,337.39 L442.25,337.36 L442.22,337.32 L442.20,337.29 L442.17,337.26 L442.14,337.24 L442.11,337.21 L442.07,337.19 L442.03,337.18 L441.99,337.16 L441.95,337.15 L441.91,337.15 L441.87,337.14 L441.83,337.15 L441.79,337.15 Q421.78,340.97 404.16,330.56 Q393.89,324.49 389.50,314.22 Q383.54,300.24 385.18,285.07 L385.18,285.05 L385.19,285.03 L385.19,285.02 L385.20,285.00 L385.21,284.99 L385.23,284.97 L385.24,284.96 L385.25,284.95 L385.27,284.94 L385.29,284.94 L385.30,284.93 L385.32,284.93 L385.34,284.93 L385.36,284.93 L385.38,284.94 L385.39,284.94 L385.41,284.95 L385.43,284.96 L385.44,284.97 L385.45,284.98 L385.46,285.00 L385.47,285.01 L385.48,285.03 Q385.97,286.33 385.91,288.00 Q385.85,289.89 387.42,294.62 C392.43,309.71 407.66,322.71 423.51,325.76 C434.58,327.89 445.37,328.14 456.15,324.38 Q474.76,317.89 487.17,309.14 Q497.19,302.07 498.06,301.56 C501.24,299.72 502.96,297.81 505.78,295.75 C510.77,292.12 514.76,289.18 520.87,287.54 Z" fill="#808094"/><circle cx="536.4" cy="236.56" r="25" fill="#e0e0e0"/><path d="M532.53,232.45 C529.25,235.52 525.13,234.32 523.07,230.59 L523.05,230.56 L523.02,230.52 L522.99,230.49 L522.96,230.46 L522.92,230.44 L522.88,230.42 L522.85,230.40 L522.80,230.39 L522.76,230.38 L522.72,230.37 L522.68,230.37 L522.63,230.38 L522.59,230.39 L522.55,230.40 L522.51,230.42 L522.47,230.44 L522.44,230.46 L522.40,230.49 L522.37,230.52 L522.35,230.55 L522.32,230.59 L522.31,230.63 L522.29,230.67 C520.40,236.53 521.64,243.18 526.22,247.23 C531.97,252.31 540.50,252.50 546.25,247.14 C551.99,241.78 552.39,233.25 547.71,227.17 C543.99,222.32 537.44,220.62 531.46,222.11 L531.42,222.12 L531.38,222.14 L531.34,222.16 L531.31,222.18 L531.27,222.21 L531.24,222.24 L531.22,222.27 L531.19,222.31 L531.17,222.35 L531.16,222.39 L531.15,222.43 L531.14,222.47 L531.14,222.51 L531.14,222.56 L531.14,222.60 L531.15,222.64 L531.17,222.68 L531.19,222.72 L531.21,222.76 L531.23,222.79 L531.26,222.83 L531.30,222.85 L531.33,222.88 C534.91,225.19 535.82,229.38 532.53,232.45 Z" fill="#0a0a0a" transform="translate(536.4,236.56) scale(1) translate(-536.4,-236.56)"/></g>
<g fill="#e6edf3"><path d="M187.17 14.12L188.04 14.12L216.22 77.50Q217.68 80.42 219.93 81.69Q222.27 83.15 224.51 83.15L225.29 83.15L225.29 84.13L197.31 84.13L197.31 83.15L198.18 83.15Q200.04 83.15 201.50 81.49Q202.86 80.03 201.99 77.30L196.62 63.45L172.54 63.45L167.08 77.01Q166.30 78.96 166.79 80.32Q167.28 81.69 168.45 82.42Q169.62 83.15 170.79 83.15L171.66 83.15L171.66 84.13L151.19 84.13L151.19 83.15L152.07 83.15Q154.31 83.15 156.75 81.69Q158.79 80.52 160.26 77.79L182.78 26.02Q182.97 25.63 183.61 24.11Q184.24 22.60 185.07 20.65Q185.90 18.70 186.48 16.90Q187.07 15.09 187.17 14.12M195.16 59.75L184.83 33.33L174.10 59.75"/><path d="M254.54 84.13L236.40 84.13L229.97 84.13L229.97 83.15L231.14 83.15Q233.38 83.15 234.94 81.59Q236.11 80.42 236.40 78.86L236.40 30.89Q236.11 29.23 234.94 28.06Q233.38 26.60 231.24 26.60L229.97 26.60L229.97 25.63L258.05 25.63Q262.34 25.63 266.09 26.50Q269.85 27.38 272.72 29.28Q275.60 31.18 277.21 34.20Q278.82 37.23 278.82 41.52Q278.82 45.13 277.26 48.59Q275.70 52.05 272.58 54.44Q269.46 56.83 264.78 57.41Q267.21 58.19 269.70 60.72Q272.19 63.26 273.55 65.50Q273.84 65.99 274.96 67.70Q276.09 69.40 277.74 71.69Q279.40 73.98 281.16 76.23Q283.11 78.76 284.67 80.27Q286.23 81.78 287.93 82.47Q289.64 83.15 291.78 83.15L291.78 84.13L285.35 84.13Q280.08 84.13 276.48 83.15Q272.87 82.17 270.38 80.13Q267.90 78.08 265.85 75.06Q265.17 73.98 264.04 72.13Q262.92 70.28 261.75 68.28Q260.58 66.28 259.61 64.48Q258.63 62.67 258.34 61.70Q256.88 58.77 254.93 57.22Q252.98 55.66 251.13 55.56L251.13 54.68Q251.22 54.68 252.20 54.73Q253.17 54.78 254.64 54.68Q256.88 54.58 259.17 54Q261.46 53.41 263.31 51.46Q265.17 49.51 266.14 45.42Q266.43 44.64 266.58 43.47Q266.73 42.30 266.63 40.84Q266.53 37.52 265.46 35.33Q264.39 33.13 262.73 31.86Q261.07 30.60 259.12 30.01Q257.17 29.43 255.42 29.33Q252.59 29.23 250.44 29.23Q248.49 29.33 247.91 29.33L247.91 77.98Q248.01 80.22 249.66 81.69Q251.32 83.15 253.37 83.15L254.44 83.15"/><path d="M299.58 24.26L300.56 24.26L347.26 66.28L347.26 31.57Q347.16 29.43 345.60 28.01Q344.04 26.60 341.90 26.60L340.24 26.60L340.24 25.63L364.62 25.63L364.62 26.60L362.96 26.60Q360.81 26.60 359.20 28.01Q357.60 29.43 357.60 31.57L357.60 73.69Q357.60 77.01 357.84 79.64Q358.08 82.27 358.38 83.83L358.57 85.39L357.69 85.39L310.89 43.17L310.89 78.18Q310.99 80.32 312.60 81.74Q314.21 83.15 316.26 83.15L317.91 83.15L317.91 84.13L293.64 84.13L293.64 83.15L295.20 83.15Q297.44 83.15 299 81.74Q300.56 80.32 300.56 78.18L300.56 35.67Q300.56 30.70 300.07 27.48"/><path d="M420.68 67.55L421.56 67.55L417.27 84.13L373.49 84.13L373.49 83.15L374.76 83.15Q377 83.15 378.56 81.64Q380.12 80.13 380.22 77.98L380.22 31.77Q380.12 29.52 378.56 28.06Q377 26.60 374.76 26.60L373.49 26.60L373.49 25.63L405.76 25.63Q408.59 25.63 411.81 25.09Q415.02 24.55 416.29 24.06L416.29 38.10L415.22 38.10L415.22 37.03Q415.22 33.52 413.27 31.38Q411.32 29.23 407.71 29.23L391.62 29.23L391.62 53.22L404.49 53.22Q407.52 53.22 409.17 51.37Q410.83 49.51 410.83 46.78L410.83 45.91L411.81 45.91L411.81 64.23L410.83 64.23L410.83 63.36Q410.83 60.63 409.17 58.77Q407.52 56.92 404.49 56.83L391.62 56.83L391.62 80.52L404.20 80.52Q408.69 80.52 411.85 78.91Q415.02 77.30 417.17 74.38Q419.31 71.45 420.68 67.55"/></g>
</svg>
